<svg width="331" height="331" viewBox="0 0 331 331" fill="none" xmlns="http://www.w3.org/2000/svg">
<g clip-path="url(#clip0_110_9)">
<path d="M331 20.6875C331 15.2008 328.821 9.93889 324.941 6.05923C321.061 2.17957 315.799 0 310.313 0L20.6877 0C15.2011 0 9.93914 2.17957 6.05948 6.05923C2.17982 9.93889 0.000248279 15.2008 0.000248279 20.6875V103.437C0.000248279 104.352 0.36351 105.229 1.01012 105.876C1.65673 106.522 2.53372 106.885 3.44817 106.885H80.5574C81.2318 106.887 81.8919 106.69 82.4557 106.32C83.0195 105.95 83.4624 105.422 83.7295 104.803L94.156 80.4606C95.4765 77.3566 97.6826 74.7108 100.499 72.8539C103.315 70.997 106.616 70.0114 109.989 70.0203H110.334C113.763 70.0749 117.097 71.155 119.906 73.1214C122.716 75.0879 124.872 77.8506 126.097 81.0536L143.778 127.021C144.019 127.632 144.427 128.162 144.957 128.549C145.487 128.936 146.116 129.165 146.771 129.208C147.426 129.252 148.08 129.108 148.656 128.794C149.232 128.48 149.707 128.009 150.026 127.435L171.472 88.115C172.915 85.4792 175.019 83.2642 177.578 81.6877C180.136 80.1111 183.06 79.2272 186.064 79.1228C189.075 79.0606 192.053 79.7738 194.709 81.194C197.366 82.6141 199.613 84.6934 201.234 87.2323L215.826 110.595C216.156 111.125 216.624 111.556 217.179 111.841C217.735 112.126 218.357 112.255 218.98 112.214C219.603 112.173 220.203 111.963 220.717 111.608C221.23 111.252 221.637 110.764 221.894 110.195L245.726 57.7871C246.901 55.3524 248.981 53.4741 251.523 52.5543C254.065 51.6345 256.866 51.7462 259.326 52.8656C261.787 53.985 263.711 56.023 264.688 58.5435C265.665 61.064 265.616 63.8667 264.552 66.3517L235.41 130.497C234.124 133.342 232.09 135.784 229.524 137.563C226.958 139.341 223.958 140.39 220.843 140.597C217.728 140.804 214.615 140.161 211.837 138.736C209.059 137.312 206.719 135.16 205.069 132.51L189.898 108.237C189.578 107.728 189.131 107.312 188.6 107.029C188.07 106.746 187.475 106.607 186.874 106.625C186.274 106.643 185.688 106.818 185.176 107.132C184.663 107.446 184.242 107.889 183.954 108.416L161.046 150.467C159.47 153.353 157.103 155.727 154.223 157.312C151.342 158.896 148.069 159.624 144.789 159.41C141.508 159.195 138.358 158.047 135.708 156.101C133.059 154.155 131.021 151.492 129.835 148.426L112.871 104.293C112.624 103.653 112.191 103.103 111.629 102.71C111.067 102.318 110.401 102.102 109.716 102.09C109.03 102.078 108.357 102.271 107.782 102.644C107.206 103.016 106.755 103.552 106.486 104.182L100.969 117.091C99.6396 120.189 97.4313 122.829 94.6173 124.684C91.8032 126.54 88.507 127.53 85.1362 127.532H3.44817C2.99188 127.531 2.54012 127.622 2.11908 127.798C1.69804 127.974 1.31609 128.231 0.995374 128.556C0.674659 128.881 0.421555 129.266 0.250734 129.689C0.0799131 130.112 -0.0052272 130.565 0.000248279 131.021V194.807C0.000248279 200.294 2.17982 205.556 6.05948 209.436C9.93914 213.315 15.2011 215.495 20.6877 215.495H141.365V238.596C139.671 239.69 138.095 240.956 136.662 242.375L77.4543 301.569C74.2208 304.802 72.4042 309.188 72.4042 313.76C72.4042 318.333 74.2208 322.719 77.4543 325.952C80.6877 329.186 85.0733 331.002 89.6461 331.002C94.2189 331.002 98.6044 329.186 101.838 325.952L156.163 271.696C156.484 271.375 156.864 271.12 157.283 270.946C157.702 270.772 158.151 270.683 158.604 270.683C159.058 270.683 159.507 270.772 159.926 270.946C160.345 271.12 160.725 271.375 161.046 271.696L215.371 326.021C218.604 329.255 222.99 331.071 227.563 331.071C232.136 331.071 236.521 329.255 239.755 326.021C242.988 322.788 244.805 318.402 244.805 313.829C244.805 309.257 242.988 304.871 239.755 301.638L180.547 242.43C179.111 241.015 177.535 239.749 175.844 238.651V215.495H310.313C315.799 215.495 321.061 213.315 324.941 209.436C328.821 205.556 331 200.294 331 194.807V20.6875Z" fill="#3488FB"/>
</g>
<defs>
<clipPath id="clip0_110_9">
<rect width="331" height="331" fill="white"/>
</clipPath>
</defs>
</svg>
